<svg width="122" height="30" viewBox="0 0 122 30" fill="none" xmlns="http://www.w3.org/2000/svg">
<path fill-rule="evenodd" clip-rule="evenodd" d="M10 0H0V10C0 12.7614 2.23858 15 5 15H15V5C15 2.23858 12.7614 0 10 0ZM10 2H2V10C2 11.6569 3.34315 13 5 13H13V5C13 3.34315 11.6569 2 10 2Z" fill="#F88500"/>
<path d="M27.389 1.964H29.565L30.942 5.959L32.336 1.964H34.495L32.421 7.455L33.951 11.297L37.368 1.93H39.918L35.09 14H33.067L30.942 8.934L28.834 14H26.811L22 1.93H24.516L27.95 11.297L29.446 7.455L27.389 1.964ZM45.8406 14.085C44.9566 14.085 44.152 13.915 43.4266 13.575C42.7126 13.235 42.095 12.776 41.5736 12.198C41.0636 11.6087 40.667 10.9513 40.3836 10.226C40.1003 9.48933 39.9586 8.73567 39.9586 7.965C39.9586 7.16033 40.106 6.39533 40.4006 5.67C40.6953 4.93333 41.109 4.28167 41.6416 3.715C42.1743 3.137 42.7976 2.68367 43.5116 2.355C44.237 2.015 45.0303 1.845 45.8916 1.845C46.7643 1.845 47.5576 2.02067 48.2716 2.372C48.997 2.72333 49.6146 3.19367 50.1246 3.783C50.646 4.37233 51.0426 5.03533 51.3146 5.772C51.598 6.49733 51.7396 7.23967 51.7396 7.999C51.7396 8.79233 51.5923 9.55733 51.2976 10.294C51.003 11.0193 50.5893 11.671 50.0566 12.249C49.5353 12.8157 48.912 13.2633 48.1866 13.592C47.4726 13.9207 46.6906 14.085 45.8406 14.085ZM42.3386 7.965C42.3386 8.66767 42.4746 9.325 42.7466 9.937C43.03 10.549 43.4323 11.0477 43.9536 11.433C44.4863 11.8183 45.121 12.011 45.8576 12.011C46.617 12.011 47.2573 11.8127 47.7786 11.416C48.3 11.0193 48.6966 10.5093 48.9686 9.886C49.2406 9.26267 49.3766 8.62233 49.3766 7.965C49.3766 7.26233 49.235 6.605 48.9516 5.993C48.6683 5.381 48.2603 4.888 47.7276 4.514C47.2063 4.12867 46.583 3.936 45.8576 3.936C45.0983 3.936 44.458 4.13433 43.9366 4.531C43.4153 4.92767 43.0186 5.43767 42.7466 6.061C42.4746 6.673 42.3386 7.30767 42.3386 7.965ZM58.6903 14.085C57.8063 14.085 57.0016 13.915 56.2763 13.575C55.5623 13.235 54.9446 12.776 54.4233 12.198C53.9133 11.6087 53.5166 10.9513 53.2333 10.226C52.9499 9.48933 52.8083 8.73567 52.8083 7.965C52.8083 7.16033 52.9556 6.39533 53.2503 5.67C53.5449 4.93333 53.9586 4.28167 54.4913 3.715C55.0239 3.137 55.6473 2.68367 56.3613 2.355C57.0866 2.015 57.8799 1.845 58.7413 1.845C59.6139 1.845 60.4073 2.02067 61.1213 2.372C61.8466 2.72333 62.4643 3.19367 62.9743 3.783C63.4956 4.37233 63.8923 5.03533 64.1643 5.772C64.4476 6.49733 64.5893 7.23967 64.5893 7.999C64.5893 8.79233 64.4419 9.55733 64.1473 10.294C63.8526 11.0193 63.4389 11.671 62.9062 12.249C62.3849 12.8157 61.7616 13.2633 61.0363 13.592C60.3223 13.9207 59.5403 14.085 58.6903 14.085ZM55.1883 7.965C55.1883 8.66767 55.3243 9.325 55.5963 9.937C55.8796 10.549 56.2819 11.0477 56.8033 11.433C57.3359 11.8183 57.9706 12.011 58.7073 12.011C59.4666 12.011 60.1069 11.8127 60.6283 11.416C61.1496 11.0193 61.5463 10.5093 61.8183 9.886C62.0903 9.26267 62.2263 8.62233 62.2263 7.965C62.2263 7.26233 62.0846 6.605 61.8013 5.993C61.5179 5.381 61.1099 4.888 60.5773 4.514C60.0559 4.12867 59.4326 3.936 58.7073 3.936C57.9479 3.936 57.3076 4.13433 56.7863 4.531C56.2649 4.92767 55.8683 5.43767 55.5963 6.061C55.3243 6.673 55.1883 7.30767 55.1883 7.965ZM66.3889 14V1.93H70.7749C72.0895 1.93 73.1889 2.202 74.0729 2.746C74.9569 3.27867 75.6199 4.004 76.0619 4.922C76.5039 5.82867 76.7249 6.83733 76.7249 7.948C76.7249 9.172 76.4812 10.2373 75.9939 11.144C75.5065 12.0507 74.8152 12.7533 73.9199 13.252C73.0245 13.7507 71.9762 14 70.7749 14H66.3889ZM74.3619 7.948C74.3619 7.166 74.2202 6.48033 73.9369 5.891C73.6535 5.29033 73.2455 4.82567 72.7129 4.497C72.1802 4.157 71.5342 3.987 70.7749 3.987H68.7349V11.943H70.7749C71.5455 11.943 72.1972 11.773 72.7299 11.433C73.2625 11.0817 73.6649 10.6057 73.9369 10.005C74.2202 9.393 74.3619 8.70733 74.3619 7.948ZM87.3524 3.987H83.4934V14H81.1644V3.987H77.3054V1.93H87.3524V3.987ZM97.2318 11.943V14H88.8508V1.93H97.0788V3.987H91.1968V6.894H96.2798V8.798H91.1968V11.943H97.2318ZM98.1139 7.88C98.1139 7.14333 98.2442 6.418 98.5049 5.704C98.7769 4.99 99.1679 4.344 99.6779 3.766C100.188 3.188 100.811 2.729 101.548 2.389C102.285 2.03767 103.123 1.862 104.064 1.862C105.163 1.862 106.121 2.10567 106.937 2.593C107.753 3.08033 108.359 3.715 108.756 4.497L106.954 5.738C106.75 5.28467 106.484 4.92767 106.155 4.667C105.826 4.40633 105.469 4.21933 105.084 4.106C104.71 3.99267 104.347 3.936 103.996 3.936C103.407 3.936 102.891 4.055 102.449 4.293C102.018 4.531 101.656 4.84267 101.361 5.228C101.066 5.61333 100.845 6.044 100.698 6.52C100.562 6.996 100.494 7.472 100.494 7.948C100.494 8.662 100.641 9.33067 100.936 9.954C101.231 10.566 101.644 11.0647 102.177 11.45C102.71 11.8353 103.327 12.028 104.03 12.028C104.393 12.028 104.767 11.9657 105.152 11.841C105.549 11.7163 105.911 11.518 106.24 11.246C106.569 10.974 106.824 10.6227 107.005 10.192L108.926 11.297C108.677 11.8977 108.286 12.4077 107.753 12.827C107.22 13.235 106.62 13.5523 105.951 13.779C105.282 13.9943 104.619 14.102 103.962 14.102C103.101 14.102 102.313 13.9263 101.599 13.575C100.896 13.2123 100.284 12.7363 99.7629 12.147C99.2416 11.5463 98.8336 10.8777 98.5389 10.141C98.2556 9.393 98.1139 8.63933 98.1139 7.88ZM120.648 1.93V14H118.319V8.849H112.845V14H110.499V1.93H112.845V6.809H118.319V1.93H120.648Z" fill="#171A1A"/>
<path opacity="0.75" d="M25.708 20.48H26.416L29.956 29H29.068L27.964 26.336H24.136L23.044 29H22.144L25.708 20.48ZM27.772 25.676L26.056 21.464L24.316 25.676H27.772ZM37.0094 23.468C36.4654 23.484 35.9854 23.636 35.5694 23.924C35.1614 24.212 34.8734 24.608 34.7054 25.112V29H33.8894V22.748H34.6574V24.248C34.8734 23.808 35.1574 23.452 35.5094 23.18C35.8694 22.908 36.2494 22.756 36.6494 22.724C36.7294 22.716 36.7974 22.712 36.8534 22.712C36.9094 22.712 36.9614 22.716 37.0094 22.724V23.468ZM43.5009 29.12C42.8929 29.12 42.3529 28.972 41.8809 28.676C41.4089 28.372 41.0369 27.976 40.7649 27.488C40.4929 26.992 40.3569 26.448 40.3569 25.856C40.3569 25.264 40.4889 24.728 40.7529 24.248C41.0169 23.76 41.3849 23.372 41.8569 23.084C42.3289 22.788 42.8729 22.64 43.4889 22.64C44.0729 22.64 44.5849 22.776 45.0249 23.048C45.4729 23.312 45.8089 23.672 46.0329 24.128L45.2409 24.38C45.0649 24.06 44.8169 23.812 44.4969 23.636C44.1849 23.452 43.8369 23.36 43.4529 23.36C43.0289 23.36 42.6449 23.468 42.3009 23.684C41.9649 23.9 41.6929 24.2 41.4849 24.584C41.2849 24.96 41.1849 25.384 41.1849 25.856C41.1849 26.328 41.2889 26.756 41.4969 27.14C41.7049 27.524 41.9809 27.832 42.3249 28.064C42.6689 28.288 43.0489 28.4 43.4649 28.4C43.7369 28.4 44.0009 28.352 44.2569 28.256C44.5129 28.16 44.7329 28.032 44.9169 27.872C45.1009 27.704 45.2249 27.524 45.2889 27.332L46.0929 27.572C45.9809 27.868 45.7969 28.136 45.5409 28.376C45.2849 28.608 44.9809 28.792 44.6289 28.928C44.2769 29.056 43.9009 29.12 43.5009 29.12ZM55.5108 29H54.6948V25.508C54.6948 24.092 54.2148 23.384 53.2548 23.384C52.9428 23.384 52.6388 23.464 52.3428 23.624C52.0468 23.776 51.7828 23.988 51.5508 24.26C51.3268 24.524 51.1668 24.828 51.0708 25.172V29H50.2548V20.24H51.0708V24.164C51.3188 23.7 51.6628 23.332 52.1028 23.06C52.5508 22.78 53.0268 22.64 53.5308 22.64C54.0108 22.64 54.3948 22.756 54.6828 22.988C54.9708 23.212 55.1788 23.528 55.3068 23.936C55.4428 24.336 55.5108 24.804 55.5108 25.34V29ZM60.1309 21.44V20.24H60.9469V21.44H60.1309ZM60.1309 29V22.748H60.9469V29H60.1309ZM68.6242 28.7C68.5282 28.74 68.3522 28.812 68.0962 28.916C67.8402 29.02 67.5442 29.072 67.2082 29.072C66.8562 29.072 66.5482 28.972 66.2842 28.772C66.0202 28.572 65.8882 28.272 65.8882 27.872V23.396H65.0242V22.748H65.8882V20.636H66.7042V22.748H68.1442V23.396H66.7042V27.644C66.7202 27.876 66.8002 28.048 66.9442 28.16C67.0962 28.264 67.2682 28.316 67.4602 28.316C67.6842 28.316 67.8842 28.28 68.0602 28.208C68.2442 28.128 68.3602 28.072 68.4082 28.04L68.6242 28.7ZM75.1183 29.12C74.5183 29.12 73.9823 28.972 73.5103 28.676C73.0383 28.38 72.6663 27.984 72.3943 27.488C72.1223 26.992 71.9863 26.448 71.9863 25.856C71.9863 25.272 72.1183 24.736 72.3823 24.248C72.6543 23.76 73.0263 23.372 73.4983 23.084C73.9703 22.788 74.5063 22.64 75.1063 22.64C75.7223 22.64 76.2623 22.788 76.7263 23.084C77.1903 23.38 77.5503 23.772 77.8063 24.26C78.0703 24.74 78.2023 25.268 78.2023 25.844C78.2023 25.972 78.1983 26.08 78.1903 26.168H72.8383C72.8783 26.616 73.0063 27.016 73.2223 27.368C73.4383 27.712 73.7143 27.988 74.0503 28.196C74.3863 28.396 74.7543 28.496 75.1543 28.496C75.5623 28.496 75.9463 28.392 76.3063 28.184C76.6663 27.976 76.9223 27.704 77.0743 27.368L77.7823 27.56C77.6543 27.864 77.4543 28.136 77.1823 28.376C76.9183 28.608 76.6103 28.792 76.2583 28.928C75.9063 29.056 75.5263 29.12 75.1183 29.12ZM72.8143 25.58H77.4343C77.4023 25.132 77.2783 24.736 77.0623 24.392C76.8463 24.04 76.5703 23.768 76.2343 23.576C75.8983 23.376 75.5263 23.276 75.1183 23.276C74.7103 23.276 74.3383 23.376 74.0023 23.576C73.6663 23.768 73.3903 24.04 73.1743 24.392C72.9663 24.736 72.8463 25.132 72.8143 25.58ZM85.0533 29.12C84.4453 29.12 83.9052 28.972 83.4332 28.676C82.9612 28.372 82.5892 27.976 82.3172 27.488C82.0452 26.992 81.9092 26.448 81.9092 25.856C81.9092 25.264 82.0412 24.728 82.3052 24.248C82.5692 23.76 82.9372 23.372 83.4092 23.084C83.8812 22.788 84.4252 22.64 85.0412 22.64C85.6253 22.64 86.1373 22.776 86.5773 23.048C87.0253 23.312 87.3613 23.672 87.5853 24.128L86.7932 24.38C86.6173 24.06 86.3693 23.812 86.0492 23.636C85.7373 23.452 85.3893 23.36 85.0053 23.36C84.5813 23.36 84.1973 23.468 83.8532 23.684C83.5172 23.9 83.2452 24.2 83.0372 24.584C82.8372 24.96 82.7372 25.384 82.7372 25.856C82.7372 26.328 82.8412 26.756 83.0492 27.14C83.2572 27.524 83.5332 27.832 83.8772 28.064C84.2212 28.288 84.6012 28.4 85.0172 28.4C85.2893 28.4 85.5533 28.352 85.8093 28.256C86.0653 28.16 86.2853 28.032 86.4693 27.872C86.6533 27.704 86.7773 27.524 86.8413 27.332L87.6453 27.572C87.5333 27.868 87.3493 28.136 87.0933 28.376C86.8372 28.608 86.5332 28.792 86.1812 28.928C85.8292 29.056 85.4533 29.12 85.0533 29.12ZM94.8072 28.7C94.7112 28.74 94.5352 28.812 94.2792 28.916C94.0232 29.02 93.7272 29.072 93.3912 29.072C93.0392 29.072 92.7312 28.972 92.4672 28.772C92.2032 28.572 92.0712 28.272 92.0712 27.872V23.396H91.2072V22.748H92.0712V20.636H92.8872V22.748H94.3272V23.396H92.8872V27.644C92.9032 27.876 92.9832 28.048 93.1272 28.16C93.2792 28.264 93.4512 28.316 93.6432 28.316C93.8672 28.316 94.0672 28.28 94.2432 28.208C94.4272 28.128 94.5432 28.072 94.5912 28.04L94.8072 28.7ZM98.6467 26.42V22.748H99.4627V26.276C99.4627 27.692 99.9467 28.4 100.915 28.4C101.395 28.4 101.843 28.244 102.259 27.932C102.683 27.62 102.987 27.204 103.171 26.684V22.748H103.987V28.016C103.987 28.232 104.083 28.344 104.275 28.352V29C104.179 29.016 104.103 29.024 104.047 29.024C103.999 29.024 103.947 29.024 103.891 29.024C103.723 29.008 103.579 28.944 103.459 28.832C103.347 28.72 103.291 28.584 103.291 28.424L103.267 27.584C102.995 28.072 102.623 28.452 102.151 28.724C101.687 28.988 101.183 29.12 100.639 29.12C99.3107 29.12 98.6467 28.22 98.6467 26.42ZM111.832 23.468C111.288 23.484 110.808 23.636 110.392 23.924C109.984 24.212 109.696 24.608 109.528 25.112V29H108.712V22.748H109.48V24.248C109.696 23.808 109.98 23.452 110.332 23.18C110.692 22.908 111.072 22.756 111.472 22.724C111.552 22.716 111.62 22.712 111.676 22.712C111.732 22.712 111.784 22.716 111.832 22.724V23.468ZM118.311 29.12C117.711 29.12 117.175 28.972 116.703 28.676C116.231 28.38 115.859 27.984 115.587 27.488C115.315 26.992 115.179 26.448 115.179 25.856C115.179 25.272 115.311 24.736 115.575 24.248C115.847 23.76 116.219 23.372 116.691 23.084C117.163 22.788 117.699 22.64 118.299 22.64C118.915 22.64 119.455 22.788 119.919 23.084C120.383 23.38 120.743 23.772 120.999 24.26C121.263 24.74 121.395 25.268 121.395 25.844C121.395 25.972 121.391 26.08 121.383 26.168H116.031C116.071 26.616 116.199 27.016 116.415 27.368C116.631 27.712 116.907 27.988 117.243 28.196C117.579 28.396 117.947 28.496 118.347 28.496C118.755 28.496 119.139 28.392 119.499 28.184C119.859 27.976 120.115 27.704 120.267 27.368L120.975 27.56C120.847 27.864 120.647 28.136 120.375 28.376C120.111 28.608 119.803 28.792 119.451 28.928C119.099 29.056 118.719 29.12 118.311 29.12ZM116.007 25.58H120.627C120.595 25.132 120.471 24.736 120.255 24.392C120.039 24.04 119.763 23.768 119.427 23.576C119.091 23.376 118.719 23.276 118.311 23.276C117.903 23.276 117.531 23.376 117.195 23.576C116.859 23.768 116.583 24.04 116.367 24.392C116.159 24.736 116.039 25.132 116.007 25.58Z" fill="#6F7A8B"/>
</svg>
