<svg width="122" height="30" viewBox="0 0 122 30" fill="none" xmlns="http://www.w3.org/2000/svg">
<path fill-rule="evenodd" clip-rule="evenodd" d="M10 0H0V10C0 12.7614 2.23858 15 5 15H15V5C15 2.23858 12.7614 0 10 0ZM10 2H2V10C2 11.6569 3.34315 13 5 13H13V5C13 3.34315 11.6569 2 10 2Z" fill="#F88500"/>
<path d="M27.168 1.947H29.735L30.959 5.806L32.183 1.947H34.767L32.744 7.557L33.968 10.804L36.994 1.93H40.037L35.209 14H32.88L30.959 9.274L29.055 14H26.709L21.898 1.93H24.924L27.967 10.804L29.157 7.557L27.168 1.947ZM45.9244 14.102C45.0291 14.102 44.2131 13.9263 43.4764 13.575C42.7398 13.2237 42.1108 12.7647 41.5894 12.198C41.0681 11.62 40.6601 10.9627 40.3654 10.226C40.0821 9.48933 39.9404 8.73 39.9404 7.948C39.9404 7.15467 40.0878 6.38967 40.3824 5.653C40.6884 4.91633 41.1078 4.27033 41.6404 3.715C42.1844 3.14833 42.8248 2.70067 43.5614 2.372C44.2981 2.032 45.1028 1.862 45.9754 1.862C46.8708 1.862 47.6868 2.03767 48.4234 2.389C49.1601 2.74033 49.7891 3.205 50.3104 3.783C50.8318 4.361 51.2341 5.01833 51.5174 5.755C51.8008 6.49167 51.9424 7.23967 51.9424 7.999C51.9424 8.79233 51.7894 9.55733 51.4834 10.294C51.1888 11.0307 50.7751 11.6823 50.2424 12.249C49.7098 12.8043 49.0751 13.252 48.3384 13.592C47.6018 13.932 46.7971 14.102 45.9244 14.102ZM42.7794 7.982C42.7794 8.44667 42.8474 8.9 42.9834 9.342C43.1194 9.77267 43.3178 10.158 43.5784 10.498C43.8504 10.838 44.1848 11.11 44.5814 11.314C44.9781 11.518 45.4314 11.62 45.9414 11.62C46.4741 11.62 46.9388 11.5123 47.3354 11.297C47.7321 11.0817 48.0608 10.804 48.3214 10.464C48.5821 10.1127 48.7748 9.72167 48.8994 9.291C49.0354 8.849 49.1034 8.40133 49.1034 7.948C49.1034 7.48333 49.0354 7.03567 48.8994 6.605C48.7634 6.163 48.5594 5.77767 48.2874 5.449C48.0154 5.109 47.6811 4.84267 47.2844 4.65C46.8991 4.446 46.4514 4.344 45.9414 4.344C45.4088 4.344 44.9441 4.45167 44.5474 4.667C44.1621 4.871 43.8334 5.143 43.5614 5.483C43.3008 5.823 43.1024 6.214 42.9664 6.656C42.8418 7.08667 42.7794 7.52867 42.7794 7.982ZM58.8405 14.102C57.9451 14.102 57.1291 13.9263 56.3925 13.575C55.6558 13.2237 55.0268 12.7647 54.5055 12.198C53.9841 11.62 53.5761 10.9627 53.2815 10.226C52.9981 9.48933 52.8565 8.73 52.8565 7.948C52.8565 7.15467 53.0038 6.38967 53.2985 5.653C53.6045 4.91633 54.0238 4.27033 54.5565 3.715C55.1005 3.14833 55.7408 2.70067 56.4775 2.372C57.2141 2.032 58.0188 1.862 58.8915 1.862C59.7868 1.862 60.6028 2.03767 61.3395 2.389C62.0761 2.74033 62.7051 3.205 63.2265 3.783C63.7478 4.361 64.1501 5.01833 64.4335 5.755C64.7168 6.49167 64.8585 7.23967 64.8585 7.999C64.8585 8.79233 64.7055 9.55733 64.3995 10.294C64.1048 11.0307 63.6911 11.6823 63.1585 12.249C62.6258 12.8043 61.9911 13.252 61.2545 13.592C60.5178 13.932 59.7131 14.102 58.8405 14.102ZM55.6955 7.982C55.6955 8.44667 55.7635 8.9 55.8995 9.342C56.0355 9.77267 56.2338 10.158 56.4945 10.498C56.7665 10.838 57.1008 11.11 57.4975 11.314C57.8941 11.518 58.3475 11.62 58.8575 11.62C59.3901 11.62 59.8548 11.5123 60.2515 11.297C60.6481 11.0817 60.9768 10.804 61.2375 10.464C61.4981 10.1127 61.6908 9.72167 61.8155 9.291C61.9515 8.849 62.0195 8.40133 62.0195 7.948C62.0195 7.48333 61.9515 7.03567 61.8155 6.605C61.6795 6.163 61.4755 5.77767 61.2035 5.449C60.9315 5.109 60.5971 4.84267 60.2005 4.65C59.8151 4.446 59.3675 4.344 58.8575 4.344C58.3248 4.344 57.8601 4.45167 57.4635 4.667C57.0781 4.871 56.7495 5.143 56.4775 5.483C56.2168 5.823 56.0185 6.214 55.8825 6.656C55.7578 7.08667 55.6955 7.52867 55.6955 7.982ZM66.4695 14V1.93H70.9745C71.9718 1.93 72.8445 2.08867 73.5925 2.406C74.3405 2.72333 74.9638 3.154 75.4625 3.698C75.9725 4.242 76.3521 4.88233 76.6015 5.619C76.8621 6.34433 76.9925 7.12067 76.9925 7.948C76.9925 8.866 76.8508 9.699 76.5675 10.447C76.2841 11.1837 75.8761 11.8183 75.3435 12.351C74.8221 12.8723 74.1875 13.2803 73.4395 13.575C72.7028 13.8583 71.8811 14 70.9745 14H66.4695ZM74.1535 7.948C74.1535 7.41533 74.0798 6.93367 73.9325 6.503C73.7965 6.061 73.5925 5.68133 73.3205 5.364C73.0485 5.04667 72.7141 4.803 72.3175 4.633C71.9208 4.463 71.4731 4.378 70.9745 4.378H69.2575V11.552H70.9745C71.4845 11.552 71.9378 11.4613 72.3345 11.28C72.7311 11.0987 73.0598 10.8493 73.3205 10.532C73.5925 10.2033 73.7965 9.82367 73.9325 9.393C74.0798 8.951 74.1535 8.46933 74.1535 7.948ZM87.271 4.378H83.599V14H80.811V4.378H77.122V1.93H87.271V4.378ZM97.1156 11.552V14H88.6326V1.93H96.9626V4.378H91.4206V6.724H96.1806V8.985H91.4206V11.552H97.1156ZM97.8633 7.863C97.8633 7.13767 97.9993 6.418 98.2713 5.704C98.5433 4.97867 98.94 4.33267 99.4613 3.766C99.9826 3.19933 100.617 2.74033 101.365 2.389C102.113 2.03767 102.963 1.862 103.915 1.862C105.049 1.862 106.029 2.10567 106.856 2.593C107.695 3.08033 108.318 3.715 108.726 4.497L106.584 5.993C106.448 5.67567 106.273 5.415 106.057 5.211C105.853 4.99567 105.627 4.82567 105.377 4.701C105.128 4.565 104.873 4.47433 104.612 4.429C104.352 4.37233 104.097 4.344 103.847 4.344C103.315 4.344 102.85 4.45167 102.453 4.667C102.057 4.88233 101.728 5.16 101.467 5.5C101.207 5.84 101.014 6.22533 100.889 6.656C100.765 7.08667 100.702 7.523 100.702 7.965C100.702 8.441 100.776 8.9 100.923 9.342C101.071 9.784 101.28 10.175 101.552 10.515C101.836 10.855 102.17 11.127 102.555 11.331C102.952 11.5237 103.394 11.62 103.881 11.62C104.131 11.62 104.386 11.5917 104.646 11.535C104.918 11.467 105.173 11.3707 105.411 11.246C105.661 11.11 105.887 10.94 106.091 10.736C106.295 10.5207 106.46 10.26 106.584 9.954L108.862 11.297C108.681 11.739 108.409 12.1357 108.046 12.487C107.695 12.8383 107.287 13.133 106.822 13.371C106.358 13.609 105.865 13.7903 105.343 13.915C104.822 14.0397 104.312 14.102 103.813 14.102C102.941 14.102 102.136 13.9263 101.399 13.575C100.674 13.2123 100.045 12.7363 99.5123 12.147C98.991 11.5577 98.583 10.889 98.2883 10.141C98.005 9.393 97.8633 8.63367 97.8633 7.863ZM120.651 1.93V14H117.863V9.053H113.052V14H110.264V1.93H113.052V6.605H117.863V1.93H120.651Z" fill="white"/>
<path d="M25.708 20.48H26.416L29.956 29H29.068L27.964 26.336H24.136L23.044 29H22.144L25.708 20.48ZM27.772 25.676L26.056 21.464L24.316 25.676H27.772ZM37.0094 23.468C36.4654 23.484 35.9854 23.636 35.5694 23.924C35.1614 24.212 34.8734 24.608 34.7054 25.112V29H33.8894V22.748H34.6574V24.248C34.8734 23.808 35.1574 23.452 35.5094 23.18C35.8694 22.908 36.2494 22.756 36.6494 22.724C36.7294 22.716 36.7974 22.712 36.8534 22.712C36.9094 22.712 36.9614 22.716 37.0094 22.724V23.468ZM43.5009 29.12C42.8929 29.12 42.3529 28.972 41.8809 28.676C41.4089 28.372 41.0369 27.976 40.7649 27.488C40.4929 26.992 40.3569 26.448 40.3569 25.856C40.3569 25.264 40.4889 24.728 40.7529 24.248C41.0169 23.76 41.3849 23.372 41.8569 23.084C42.3289 22.788 42.8729 22.64 43.4889 22.64C44.0729 22.64 44.5849 22.776 45.0249 23.048C45.4729 23.312 45.8089 23.672 46.0329 24.128L45.2409 24.38C45.0649 24.06 44.8169 23.812 44.4969 23.636C44.1849 23.452 43.8369 23.36 43.4529 23.36C43.0289 23.36 42.6449 23.468 42.3009 23.684C41.9649 23.9 41.6929 24.2 41.4849 24.584C41.2849 24.96 41.1849 25.384 41.1849 25.856C41.1849 26.328 41.2889 26.756 41.4969 27.14C41.7049 27.524 41.9809 27.832 42.3249 28.064C42.6689 28.288 43.0489 28.4 43.4649 28.4C43.7369 28.4 44.0009 28.352 44.2569 28.256C44.5129 28.16 44.7329 28.032 44.9169 27.872C45.1009 27.704 45.2249 27.524 45.2889 27.332L46.0929 27.572C45.9809 27.868 45.7969 28.136 45.5409 28.376C45.2849 28.608 44.9809 28.792 44.6289 28.928C44.2769 29.056 43.9009 29.12 43.5009 29.12ZM55.5108 29H54.6948V25.508C54.6948 24.092 54.2148 23.384 53.2548 23.384C52.9428 23.384 52.6388 23.464 52.3428 23.624C52.0468 23.776 51.7828 23.988 51.5508 24.26C51.3268 24.524 51.1668 24.828 51.0708 25.172V29H50.2548V20.24H51.0708V24.164C51.3188 23.7 51.6628 23.332 52.1028 23.06C52.5508 22.78 53.0268 22.64 53.5308 22.64C54.0108 22.64 54.3948 22.756 54.6828 22.988C54.9708 23.212 55.1788 23.528 55.3068 23.936C55.4428 24.336 55.5108 24.804 55.5108 25.34V29ZM60.1309 21.44V20.24H60.9469V21.44H60.1309ZM60.1309 29V22.748H60.9469V29H60.1309ZM68.6242 28.7C68.5282 28.74 68.3522 28.812 68.0962 28.916C67.8402 29.02 67.5442 29.072 67.2082 29.072C66.8562 29.072 66.5482 28.972 66.2842 28.772C66.0202 28.572 65.8882 28.272 65.8882 27.872V23.396H65.0242V22.748H65.8882V20.636H66.7042V22.748H68.1442V23.396H66.7042V27.644C66.7202 27.876 66.8002 28.048 66.9442 28.16C67.0962 28.264 67.2682 28.316 67.4602 28.316C67.6842 28.316 67.8842 28.28 68.0602 28.208C68.2442 28.128 68.3602 28.072 68.4082 28.04L68.6242 28.7ZM75.1183 29.12C74.5183 29.12 73.9823 28.972 73.5103 28.676C73.0383 28.38 72.6663 27.984 72.3943 27.488C72.1223 26.992 71.9863 26.448 71.9863 25.856C71.9863 25.272 72.1183 24.736 72.3823 24.248C72.6543 23.76 73.0263 23.372 73.4983 23.084C73.9703 22.788 74.5063 22.64 75.1063 22.64C75.7223 22.64 76.2623 22.788 76.7263 23.084C77.1903 23.38 77.5503 23.772 77.8063 24.26C78.0703 24.74 78.2023 25.268 78.2023 25.844C78.2023 25.972 78.1983 26.08 78.1903 26.168H72.8383C72.8783 26.616 73.0063 27.016 73.2223 27.368C73.4383 27.712 73.7143 27.988 74.0503 28.196C74.3863 28.396 74.7543 28.496 75.1543 28.496C75.5623 28.496 75.9463 28.392 76.3063 28.184C76.6663 27.976 76.9223 27.704 77.0743 27.368L77.7823 27.56C77.6543 27.864 77.4543 28.136 77.1823 28.376C76.9183 28.608 76.6103 28.792 76.2583 28.928C75.9063 29.056 75.5263 29.12 75.1183 29.12ZM72.8143 25.58H77.4343C77.4023 25.132 77.2783 24.736 77.0623 24.392C76.8463 24.04 76.5703 23.768 76.2343 23.576C75.8983 23.376 75.5263 23.276 75.1183 23.276C74.7103 23.276 74.3383 23.376 74.0023 23.576C73.6663 23.768 73.3903 24.04 73.1743 24.392C72.9663 24.736 72.8463 25.132 72.8143 25.58ZM85.0533 29.12C84.4453 29.12 83.9052 28.972 83.4332 28.676C82.9612 28.372 82.5892 27.976 82.3172 27.488C82.0452 26.992 81.9092 26.448 81.9092 25.856C81.9092 25.264 82.0412 24.728 82.3052 24.248C82.5692 23.76 82.9372 23.372 83.4092 23.084C83.8812 22.788 84.4252 22.64 85.0412 22.64C85.6253 22.64 86.1373 22.776 86.5773 23.048C87.0253 23.312 87.3613 23.672 87.5853 24.128L86.7932 24.38C86.6173 24.06 86.3693 23.812 86.0492 23.636C85.7373 23.452 85.3893 23.36 85.0053 23.36C84.5813 23.36 84.1973 23.468 83.8532 23.684C83.5172 23.9 83.2452 24.2 83.0372 24.584C82.8372 24.96 82.7372 25.384 82.7372 25.856C82.7372 26.328 82.8412 26.756 83.0492 27.14C83.2572 27.524 83.5332 27.832 83.8772 28.064C84.2212 28.288 84.6012 28.4 85.0172 28.4C85.2893 28.4 85.5533 28.352 85.8093 28.256C86.0653 28.16 86.2853 28.032 86.4693 27.872C86.6533 27.704 86.7773 27.524 86.8413 27.332L87.6453 27.572C87.5333 27.868 87.3493 28.136 87.0933 28.376C86.8372 28.608 86.5332 28.792 86.1812 28.928C85.8292 29.056 85.4533 29.12 85.0533 29.12ZM94.8072 28.7C94.7112 28.74 94.5352 28.812 94.2792 28.916C94.0232 29.02 93.7272 29.072 93.3912 29.072C93.0392 29.072 92.7312 28.972 92.4672 28.772C92.2032 28.572 92.0712 28.272 92.0712 27.872V23.396H91.2072V22.748H92.0712V20.636H92.8872V22.748H94.3272V23.396H92.8872V27.644C92.9032 27.876 92.9832 28.048 93.1272 28.16C93.2792 28.264 93.4512 28.316 93.6432 28.316C93.8672 28.316 94.0672 28.28 94.2432 28.208C94.4272 28.128 94.5432 28.072 94.5912 28.04L94.8072 28.7ZM98.6467 26.42V22.748H99.4627V26.276C99.4627 27.692 99.9467 28.4 100.915 28.4C101.395 28.4 101.843 28.244 102.259 27.932C102.683 27.62 102.987 27.204 103.171 26.684V22.748H103.987V28.016C103.987 28.232 104.083 28.344 104.275 28.352V29C104.179 29.016 104.103 29.024 104.047 29.024C103.999 29.024 103.947 29.024 103.891 29.024C103.723 29.008 103.579 28.944 103.459 28.832C103.347 28.72 103.291 28.584 103.291 28.424L103.267 27.584C102.995 28.072 102.623 28.452 102.151 28.724C101.687 28.988 101.183 29.12 100.639 29.12C99.3107 29.12 98.6467 28.22 98.6467 26.42ZM111.832 23.468C111.288 23.484 110.808 23.636 110.392 23.924C109.984 24.212 109.696 24.608 109.528 25.112V29H108.712V22.748H109.48V24.248C109.696 23.808 109.98 23.452 110.332 23.18C110.692 22.908 111.072 22.756 111.472 22.724C111.552 22.716 111.62 22.712 111.676 22.712C111.732 22.712 111.784 22.716 111.832 22.724V23.468ZM118.311 29.12C117.711 29.12 117.175 28.972 116.703 28.676C116.231 28.38 115.859 27.984 115.587 27.488C115.315 26.992 115.179 26.448 115.179 25.856C115.179 25.272 115.311 24.736 115.575 24.248C115.847 23.76 116.219 23.372 116.691 23.084C117.163 22.788 117.699 22.64 118.299 22.64C118.915 22.64 119.455 22.788 119.919 23.084C120.383 23.38 120.743 23.772 120.999 24.26C121.263 24.74 121.395 25.268 121.395 25.844C121.395 25.972 121.391 26.08 121.383 26.168H116.031C116.071 26.616 116.199 27.016 116.415 27.368C116.631 27.712 116.907 27.988 117.243 28.196C117.579 28.396 117.947 28.496 118.347 28.496C118.755 28.496 119.139 28.392 119.499 28.184C119.859 27.976 120.115 27.704 120.267 27.368L120.975 27.56C120.847 27.864 120.647 28.136 120.375 28.376C120.111 28.608 119.803 28.792 119.451 28.928C119.099 29.056 118.719 29.12 118.311 29.12ZM116.007 25.58H120.627C120.595 25.132 120.471 24.736 120.255 24.392C120.039 24.04 119.763 23.768 119.427 23.576C119.091 23.376 118.719 23.276 118.311 23.276C117.903 23.276 117.531 23.376 117.195 23.576C116.859 23.768 116.583 24.04 116.367 24.392C116.159 24.736 116.039 25.132 116.007 25.58Z" fill="white" fill-opacity="0.45"/>
</svg>
