<svg width="122" height="30" viewBox="0 0 122 30" fill="none" xmlns="http://www.w3.org/2000/svg">
<g opacity="0.5">
<path fill-rule="evenodd" clip-rule="evenodd" d="M10 0H0V10C0 12.7614 2.23858 15 5 15H15V5C15 2.23858 12.7614 0 10 0ZM10 2H2V10C2 11.6569 3.34315 13 5 13H13V5C13 3.34315 11.6569 2 10 2Z" fill="white"/>
<path d="M27.134 1.947H29.701L30.959 5.806L32.217 1.947H34.801L32.744 7.557L33.968 10.77L36.994 1.93H40.037L35.328 14H32.914L30.959 9.274L29.021 14H26.59L21.898 1.93H24.924L27.967 10.77L29.157 7.557L27.134 1.947ZM45.9078 14.102C45.0125 14.102 44.1965 13.932 43.4598 13.592C42.7345 13.2407 42.1055 12.776 41.5728 12.198C41.0402 11.6087 40.6322 10.9513 40.3488 10.226C40.0655 9.48933 39.9238 8.73 39.9238 7.948C39.9238 7.15467 40.0712 6.39533 40.3658 5.67C40.6718 4.93333 41.0912 4.28167 41.6238 3.715C42.1678 3.137 42.8082 2.68367 43.5448 2.355C44.2815 2.02633 45.0862 1.862 45.9588 1.862C46.8542 1.862 47.6645 2.03767 48.3898 2.389C49.1265 2.729 49.7555 3.19367 50.2768 3.783C50.8095 4.37233 51.2175 5.03533 51.5008 5.772C51.7842 6.49733 51.9258 7.23967 51.9258 7.999C51.9258 8.79233 51.7728 9.55733 51.4668 10.294C51.1722 11.0193 50.7528 11.671 50.2088 12.249C49.6762 12.8157 49.0415 13.269 48.3048 13.609C47.5795 13.9377 46.7805 14.102 45.9078 14.102ZM42.7628 7.982C42.7628 8.60533 42.8818 9.19467 43.1198 9.75C43.3578 10.294 43.7148 10.7417 44.1908 11.093C44.6668 11.4443 45.2448 11.62 45.9248 11.62C46.6275 11.62 47.2112 11.4387 47.6758 11.076C48.1518 10.7133 48.5032 10.2543 48.7298 9.699C48.9678 9.13233 49.0868 8.54867 49.0868 7.948C49.0868 7.32467 48.9622 6.741 48.7128 6.197C48.4748 5.64167 48.1178 5.194 47.6418 4.854C47.1772 4.514 46.6048 4.344 45.9248 4.344C45.2222 4.344 44.6328 4.52533 44.1568 4.888C43.6922 5.23933 43.3408 5.69267 43.1028 6.248C42.8762 6.80333 42.7628 7.38133 42.7628 7.982ZM58.8239 14.102C57.9285 14.102 57.1125 13.932 56.3759 13.592C55.6505 13.2407 55.0215 12.776 54.4889 12.198C53.9562 11.6087 53.5482 10.9513 53.2649 10.226C52.9815 9.48933 52.8399 8.73 52.8399 7.948C52.8399 7.15467 52.9872 6.39533 53.2819 5.67C53.5879 4.93333 54.0072 4.28167 54.5399 3.715C55.0839 3.137 55.7242 2.68367 56.4609 2.355C57.1975 2.02633 58.0022 1.862 58.8749 1.862C59.7702 1.862 60.5805 2.03767 61.3059 2.389C62.0425 2.729 62.6715 3.19367 63.1929 3.783C63.7255 4.37233 64.1335 5.03533 64.4169 5.772C64.7002 6.49733 64.8419 7.23967 64.8419 7.999C64.8419 8.79233 64.6889 9.55733 64.3829 10.294C64.0882 11.0193 63.6689 11.671 63.1249 12.249C62.5922 12.8157 61.9575 13.269 61.2209 13.609C60.4955 13.9377 59.6965 14.102 58.8239 14.102ZM55.6789 7.982C55.6789 8.60533 55.7979 9.19467 56.0359 9.75C56.2739 10.294 56.6309 10.7417 57.1069 11.093C57.5829 11.4443 58.1609 11.62 58.8409 11.62C59.5435 11.62 60.1272 11.4387 60.5919 11.076C61.0679 10.7133 61.4192 10.2543 61.6459 9.699C61.8839 9.13233 62.0029 8.54867 62.0029 7.948C62.0029 7.32467 61.8782 6.741 61.6289 6.197C61.3909 5.64167 61.0339 5.194 60.5579 4.854C60.0932 4.514 59.5209 4.344 58.8409 4.344C58.1382 4.344 57.5489 4.52533 57.0729 4.888C56.6082 5.23933 56.2569 5.69267 56.0189 6.248C55.7922 6.80333 55.6789 7.38133 55.6789 7.982ZM66.4529 14V1.93H70.9579C72.2839 1.93 73.3889 2.202 74.2729 2.746C75.1682 3.27867 75.8425 4.004 76.2959 4.922C76.7492 5.82867 76.9759 6.83733 76.9759 7.948C76.9759 9.172 76.7265 10.2373 76.2279 11.144C75.7292 12.0507 75.0265 12.7533 74.1199 13.252C73.2245 13.7507 72.1705 14 70.9579 14H66.4529ZM74.1369 7.948C74.1369 6.88267 73.8592 6.02133 73.3039 5.364C72.7485 4.70667 71.9665 4.378 70.9579 4.378H69.2409V11.552H70.9579C71.6379 11.552 72.2159 11.399 72.6919 11.093C73.1679 10.7757 73.5249 10.345 73.7629 9.801C74.0122 9.257 74.1369 8.63933 74.1369 7.948ZM87.6196 4.378H83.9476V14H81.1596V4.378H77.4706V1.93H87.6196V4.378ZM97.4642 11.552V14H88.9812V1.93H97.3112V4.378H91.7692V6.724H96.5292V8.985H91.7692V11.552H97.4642ZM98.2617 7.863C98.2617 7.13767 98.3977 6.418 98.6697 5.704C98.9417 4.99 99.3384 4.344 99.8597 3.766C100.381 3.188 101.016 2.729 101.764 2.389C102.512 2.03767 103.362 1.862 104.314 1.862C105.436 1.862 106.416 2.10567 107.255 2.593C108.093 3.08033 108.717 3.715 109.125 4.497L106.983 5.993C106.801 5.57367 106.558 5.245 106.252 5.007C105.946 4.75767 105.617 4.58767 105.266 4.497C104.914 4.395 104.574 4.344 104.246 4.344C103.532 4.344 102.942 4.52533 102.478 4.888C102.013 5.25067 101.667 5.70967 101.441 6.265C101.214 6.82033 101.101 7.387 101.101 7.965C101.101 8.59967 101.231 9.20033 101.492 9.767C101.752 10.3223 102.121 10.77 102.597 11.11C103.073 11.45 103.634 11.62 104.28 11.62C104.62 11.62 104.965 11.569 105.317 11.467C105.668 11.3537 105.991 11.1723 106.286 10.923C106.592 10.6737 106.824 10.3507 106.983 9.954L109.261 11.297C109.023 11.8977 108.632 12.4077 108.088 12.827C107.544 13.235 106.926 13.5523 106.235 13.779C105.555 13.9943 104.88 14.102 104.212 14.102C103.339 14.102 102.54 13.9263 101.815 13.575C101.089 13.2123 100.46 12.7363 99.9277 12.147C99.3951 11.5463 98.9814 10.8777 98.6867 10.141C98.4034 9.393 98.2617 8.63367 98.2617 7.863ZM121.05 1.93V14H118.262V9.053H113.451V14H110.663V1.93H113.451V6.605H118.262V1.93H121.05Z" fill="white"/>
<path d="M25.708 20.48H26.416L29.956 29H29.068L27.964 26.336H24.136L23.044 29H22.144L25.708 20.48ZM27.772 25.676L26.056 21.464L24.316 25.676H27.772ZM37.0094 23.468C36.4654 23.484 35.9854 23.636 35.5694 23.924C35.1614 24.212 34.8734 24.608 34.7054 25.112V29H33.8894V22.748H34.6574V24.248C34.8734 23.808 35.1574 23.452 35.5094 23.18C35.8694 22.908 36.2494 22.756 36.6494 22.724C36.7294 22.716 36.7974 22.712 36.8534 22.712C36.9094 22.712 36.9614 22.716 37.0094 22.724V23.468ZM43.5009 29.12C42.8929 29.12 42.3529 28.972 41.8809 28.676C41.4089 28.372 41.0369 27.976 40.7649 27.488C40.4929 26.992 40.3569 26.448 40.3569 25.856C40.3569 25.264 40.4889 24.728 40.7529 24.248C41.0169 23.76 41.3849 23.372 41.8569 23.084C42.3289 22.788 42.8729 22.64 43.4889 22.64C44.0729 22.64 44.5849 22.776 45.0249 23.048C45.4729 23.312 45.8089 23.672 46.0329 24.128L45.2409 24.38C45.0649 24.06 44.8169 23.812 44.4969 23.636C44.1849 23.452 43.8369 23.36 43.4529 23.36C43.0289 23.36 42.6449 23.468 42.3009 23.684C41.9649 23.9 41.6929 24.2 41.4849 24.584C41.2849 24.96 41.1849 25.384 41.1849 25.856C41.1849 26.328 41.2889 26.756 41.4969 27.14C41.7049 27.524 41.9809 27.832 42.3249 28.064C42.6689 28.288 43.0489 28.4 43.4649 28.4C43.7369 28.4 44.0009 28.352 44.2569 28.256C44.5129 28.16 44.7329 28.032 44.9169 27.872C45.1009 27.704 45.2249 27.524 45.2889 27.332L46.0929 27.572C45.9809 27.868 45.7969 28.136 45.5409 28.376C45.2849 28.608 44.9809 28.792 44.6289 28.928C44.2769 29.056 43.9009 29.12 43.5009 29.12ZM55.5108 29H54.6948V25.508C54.6948 24.092 54.2148 23.384 53.2548 23.384C52.9428 23.384 52.6388 23.464 52.3428 23.624C52.0468 23.776 51.7828 23.988 51.5508 24.26C51.3268 24.524 51.1668 24.828 51.0708 25.172V29H50.2548V20.24H51.0708V24.164C51.3188 23.7 51.6628 23.332 52.1028 23.06C52.5508 22.78 53.0268 22.64 53.5308 22.64C54.0108 22.64 54.3948 22.756 54.6828 22.988C54.9708 23.212 55.1788 23.528 55.3068 23.936C55.4428 24.336 55.5108 24.804 55.5108 25.34V29ZM60.1309 21.44V20.24H60.9469V21.44H60.1309ZM60.1309 29V22.748H60.9469V29H60.1309ZM68.6242 28.7C68.5282 28.74 68.3522 28.812 68.0962 28.916C67.8402 29.02 67.5442 29.072 67.2082 29.072C66.8562 29.072 66.5482 28.972 66.2842 28.772C66.0202 28.572 65.8882 28.272 65.8882 27.872V23.396H65.0242V22.748H65.8882V20.636H66.7042V22.748H68.1442V23.396H66.7042V27.644C66.7202 27.876 66.8002 28.048 66.9442 28.16C67.0962 28.264 67.2682 28.316 67.4602 28.316C67.6842 28.316 67.8842 28.28 68.0602 28.208C68.2442 28.128 68.3602 28.072 68.4082 28.04L68.6242 28.7ZM75.1183 29.12C74.5183 29.12 73.9823 28.972 73.5103 28.676C73.0383 28.38 72.6663 27.984 72.3943 27.488C72.1223 26.992 71.9863 26.448 71.9863 25.856C71.9863 25.272 72.1183 24.736 72.3823 24.248C72.6543 23.76 73.0263 23.372 73.4983 23.084C73.9703 22.788 74.5063 22.64 75.1063 22.64C75.7223 22.64 76.2623 22.788 76.7263 23.084C77.1903 23.38 77.5503 23.772 77.8063 24.26C78.0703 24.74 78.2023 25.268 78.2023 25.844C78.2023 25.972 78.1983 26.08 78.1903 26.168H72.8383C72.8783 26.616 73.0063 27.016 73.2223 27.368C73.4383 27.712 73.7143 27.988 74.0503 28.196C74.3863 28.396 74.7543 28.496 75.1543 28.496C75.5623 28.496 75.9463 28.392 76.3063 28.184C76.6663 27.976 76.9223 27.704 77.0743 27.368L77.7823 27.56C77.6543 27.864 77.4543 28.136 77.1823 28.376C76.9183 28.608 76.6103 28.792 76.2583 28.928C75.9063 29.056 75.5263 29.12 75.1183 29.12ZM72.8143 25.58H77.4343C77.4023 25.132 77.2783 24.736 77.0623 24.392C76.8463 24.04 76.5703 23.768 76.2343 23.576C75.8983 23.376 75.5263 23.276 75.1183 23.276C74.7103 23.276 74.3383 23.376 74.0023 23.576C73.6663 23.768 73.3903 24.04 73.1743 24.392C72.9663 24.736 72.8463 25.132 72.8143 25.58ZM85.0533 29.12C84.4453 29.12 83.9052 28.972 83.4332 28.676C82.9612 28.372 82.5892 27.976 82.3172 27.488C82.0452 26.992 81.9092 26.448 81.9092 25.856C81.9092 25.264 82.0412 24.728 82.3052 24.248C82.5692 23.76 82.9372 23.372 83.4092 23.084C83.8812 22.788 84.4252 22.64 85.0412 22.64C85.6253 22.64 86.1373 22.776 86.5773 23.048C87.0253 23.312 87.3613 23.672 87.5853 24.128L86.7932 24.38C86.6173 24.06 86.3693 23.812 86.0492 23.636C85.7373 23.452 85.3893 23.36 85.0053 23.36C84.5813 23.36 84.1973 23.468 83.8532 23.684C83.5172 23.9 83.2452 24.2 83.0372 24.584C82.8372 24.96 82.7372 25.384 82.7372 25.856C82.7372 26.328 82.8412 26.756 83.0492 27.14C83.2572 27.524 83.5332 27.832 83.8772 28.064C84.2212 28.288 84.6012 28.4 85.0172 28.4C85.2893 28.4 85.5533 28.352 85.8093 28.256C86.0653 28.16 86.2853 28.032 86.4693 27.872C86.6533 27.704 86.7773 27.524 86.8413 27.332L87.6453 27.572C87.5333 27.868 87.3493 28.136 87.0933 28.376C86.8372 28.608 86.5332 28.792 86.1812 28.928C85.8292 29.056 85.4533 29.12 85.0533 29.12ZM94.8072 28.7C94.7112 28.74 94.5352 28.812 94.2792 28.916C94.0232 29.02 93.7272 29.072 93.3912 29.072C93.0392 29.072 92.7312 28.972 92.4672 28.772C92.2032 28.572 92.0712 28.272 92.0712 27.872V23.396H91.2072V22.748H92.0712V20.636H92.8872V22.748H94.3272V23.396H92.8872V27.644C92.9032 27.876 92.9832 28.048 93.1272 28.16C93.2792 28.264 93.4512 28.316 93.6432 28.316C93.8672 28.316 94.0672 28.28 94.2432 28.208C94.4272 28.128 94.5432 28.072 94.5912 28.04L94.8072 28.7ZM98.6467 26.42V22.748H99.4627V26.276C99.4627 27.692 99.9467 28.4 100.915 28.4C101.395 28.4 101.843 28.244 102.259 27.932C102.683 27.62 102.987 27.204 103.171 26.684V22.748H103.987V28.016C103.987 28.232 104.083 28.344 104.275 28.352V29C104.179 29.016 104.103 29.024 104.047 29.024C103.999 29.024 103.947 29.024 103.891 29.024C103.723 29.008 103.579 28.944 103.459 28.832C103.347 28.72 103.291 28.584 103.291 28.424L103.267 27.584C102.995 28.072 102.623 28.452 102.151 28.724C101.687 28.988 101.183 29.12 100.639 29.12C99.3107 29.12 98.6467 28.22 98.6467 26.42ZM111.832 23.468C111.288 23.484 110.808 23.636 110.392 23.924C109.984 24.212 109.696 24.608 109.528 25.112V29H108.712V22.748H109.48V24.248C109.696 23.808 109.98 23.452 110.332 23.18C110.692 22.908 111.072 22.756 111.472 22.724C111.552 22.716 111.62 22.712 111.676 22.712C111.732 22.712 111.784 22.716 111.832 22.724V23.468ZM118.311 29.12C117.711 29.12 117.175 28.972 116.703 28.676C116.231 28.38 115.859 27.984 115.587 27.488C115.315 26.992 115.179 26.448 115.179 25.856C115.179 25.272 115.311 24.736 115.575 24.248C115.847 23.76 116.219 23.372 116.691 23.084C117.163 22.788 117.699 22.64 118.299 22.64C118.915 22.64 119.455 22.788 119.919 23.084C120.383 23.38 120.743 23.772 120.999 24.26C121.263 24.74 121.395 25.268 121.395 25.844C121.395 25.972 121.391 26.08 121.383 26.168H116.031C116.071 26.616 116.199 27.016 116.415 27.368C116.631 27.712 116.907 27.988 117.243 28.196C117.579 28.396 117.947 28.496 118.347 28.496C118.755 28.496 119.139 28.392 119.499 28.184C119.859 27.976 120.115 27.704 120.267 27.368L120.975 27.56C120.847 27.864 120.647 28.136 120.375 28.376C120.111 28.608 119.803 28.792 119.451 28.928C119.099 29.056 118.719 29.12 118.311 29.12ZM116.007 25.58H120.627C120.595 25.132 120.471 24.736 120.255 24.392C120.039 24.04 119.763 23.768 119.427 23.576C119.091 23.376 118.719 23.276 118.311 23.276C117.903 23.276 117.531 23.376 117.195 23.576C116.859 23.768 116.583 24.04 116.367 24.392C116.159 24.736 116.039 25.132 116.007 25.58Z" fill="white" fill-opacity="0.45"/>
</g>
</svg>
